<?xml version="1.0"?>
<svg version="1.1" xmlns="http://www.w3.org/2000/svg" width="400px" height="200px" style="border: dashed 2px #aaa"><path fill="#fcfcfc" d="M60.7861328125,118.8984375l0-0.83544921875q0-1.037109375,0.0576171875-1.958984375q0.0576171875-1.29638671875,0.0576171875-2.1318359375q0-0.4609375,0.0576171875-1.051513671875t0.2880859375-0.936279296875q0.2880859375-0.2880859375,0.677001953125-0.590576171875t0.849853515625-0.302490234375q1.46923828125,0,2.3046875,0.331298828125t0.89306640625,1.368408203125l0.115234375,0.89306640625q0.5185546875-1.23876953125,1.3828125-3.068115234375t2.002197265625-3.48583984375t2.56396484375-2.8232421875t3.010498046875-1.166748046875q1.46923828125,0,2.419921875,1.3828125t1.512451171875,3.529052734375t0.792236328125,4.7822265625t0.31689453125,5.171142578125t0.115234375,4.623779296875t0.20166015625,3.154541015625q0.115234375,0.89306640625,0.388916015625,1.886962890625t0.273681640625,1.829345703125q0,0.23046875-0.331298828125,0.446533203125t-0.705810546875,0.360107421875t-0.763427734375,0.23046875t-0.561767578125,0.08642578125q-1.12353515625,0-1.598876953125-1.685302734375t-0.590576171875-4.220458984375t-0.115234375-5.488037109375t-0.20166015625-5.488037109375t-0.821044921875-4.220458984375t-1.973388671875-1.742919921875q-1.23876953125,0-2.56396484375,1.598876953125t-2.27587890625,4.249267578125q-0.921875,2.650390625-1.267578125,6.02099609375q-0.115234375,1.06591796875-0.115234375,2.1318359375q0,2.33349609375,0.48974609375,4.6669921875q0.0576171875,0.4033203125-0.331298828125,0.60498046875t-0.965087890625,0.31689453125t-1.166748046875,0.14404296875t-0.907470703125,0.02880859375q-1.12353515625,0-1.800537109375-0.792236328125t-1.051513671875-2.031005859375t-0.504150390625-2.780029296875t-0.158447265625-3.039306640625z M86.963637695312,119.935546875q0-2.0166015625,0.446533203125-4.75341796875t1.512451171875-5.185546875t2.808837890625-4.162841796875t4.393310546875-1.714111328125q2.4775390625,0,3.71630859375,1.426025390625t1.23876953125,3.845947265625q0,1.58447265625-0.590576171875,3.471435546875t-1.685302734375,3.572265625t-2.5927734375,2.808837890625t-3.341796875,1.12353515625l-0.7490234375-0.0576171875q0,0.77783203125,0.23046875,2.088623046875t0.677001953125,2.607177734375t1.15234375,2.27587890625t1.714111328125,0.9794921875q1.46923828125,0,2.8232421875-1.18115234375t2.56396484375-2.62158203125t2.2470703125-2.62158203125t1.9013671875-1.18115234375q0.4609375,0,0.95068359375,0.14404296875t0.54736328125,0.806640625q0,0.4033203125-0.216064453125,0.66259765625t-0.388916015625,0.576171875q-0.89306640625,1.52685546875-1.944580078125,2.90966796875t-2.376708984375,2.50634765625t-2.895263671875,1.771728515625t-3.471435546875,0.648193359375q-2.4775390625,0-4.11962890625-0.878662109375t-2.650390625-2.3623046875t-1.454833984375-3.42822265625t-0.446533203125-4.076416015625z M92.120375976562,117.74609375l0.806640625,0.72021484375q0.576171875,0.5185546875,1.15234375,0.23046875t1.037109375-1.051513671875t0.849853515625-1.886962890625t0.69140625-2.3046875t0.446533203125-2.3046875t0.14404296875-1.87255859375l0-0.9794921875t-0.08642578125-1.037109375t-0.302490234375-0.821044921875t-0.677001953125-0.417724609375q-0.14404296875-0.02880859375-0.25927734375-0.02880859375q-0.9794921875,0-1.6708984375,1.23876953125q-0.7490234375,1.3828125-1.2099609375,3.356201171875t-0.66259765625,4.047607421875t-0.25927734375,3.111328125z M109.85696289062,100.4609375q0-0.4033203125,0.8642578125-0.69140625t1.958984375-0.475341796875t2.117431640625-0.273681640625t1.397216796875-0.14404296875q0-0.77783203125,0.0576171875-1.570068359375t0.31689453125-1.41162109375t0.821044921875-0.993896484375t1.570068359375-0.37451171875q0.83544921875,0,1.267578125,0.20166015625t0.921875,0.83544921875q0.115234375,0.345703125,0.115234375,0.66259765625l0,0.965087890625t-0.0576171875,0.993896484375q1.06591796875-0.115234375,2.117431640625-0.273681640625t2.117431640625-0.158447265625q0.77783203125,0,1.06591796875,0.02880859375t0.576171875,0.69140625q0.23046875,0.66259765625-0.561767578125,1.00830078125t-1.9013671875,0.5185546875t-2.203857421875,0.25927734375t-1.3251953125,0.08642578125q-0.345703125,4.955078125-0.705810546875,9.82373046875t-0.360107421875,9.88134765625q0,2.2470703125,0.14404296875,4.63818359375t0.806640625,4.52294921875q0.1728515625,0.66259765625,0.576171875,1.23876953125t0.4033203125,1.23876953125q0,0.4033203125-0.31689453125,0.6337890625t-0.763427734375,0.388916015625t-0.89306640625,0.187255859375t-0.734619140625,0.02880859375q-1.81494140625,0-2.765625-1.35400390625t-1.368408203125-3.240966796875t-0.446533203125-3.874755859375t-0.02880859375-3.2265625q0-2.53515625,0.100830078125-5.185546875t0.244873046875-5.2431640625t0.4033203125-5.0703125t0.60498046875-4.609375q-1.00830078125,0.115234375-1.973388671875,0.25927734375t-1.973388671875,0.14404296875q-0.23046875,0-0.619384765625-0.02880859375t-0.734619140625-0.14404296875t-0.590576171875-0.31689453125t-0.244873046875-0.576171875z M131.94364746094,121.05908203125q0-1.06591796875,0.043212890625-3.125732421875t0.302490234375-4.191650390625t0.849853515625-3.8603515625t1.771728515625-2.21826171875q0.2880859375-0.115234375,0.936279296875-0.20166015625t1.29638671875-0.0576171875t1.15234375,0.23046875t0.504150390625,0.7490234375q0,0.115234375-0.115234375,0.31689453125t-0.60498046875,0.6337890625q-0.89306640625,2.4775390625-1.0947265625,4.92626953125t-0.20166015625,5.04150390625q0,1.52685546875,0.100830078125,3.0537109375t0.331298828125,3.08251953125q0.4609375-0.66259765625,0.936279296875-1.98779296875t1.00830078125-2.895263671875t1.0947265625-3.183349609375t1.267578125-2.9384765625t1.5556640625-2.189453125t1.915771484375-0.8642578125q1.18115234375,0,1.973388671875,1.483642578125t1.46923828125,3.42822265625t1.267578125,3.94677734375t1.426025390625,3.068115234375q0.4033203125-0.4033203125,0.648193359375-1.051513671875t0.388916015625-1.397216796875t0.1728515625-1.483642578125t0.02880859375-1.253173828125q0-1.29638671875-0.388916015625-2.808837890625t-0.821044921875-2.837646484375t-0.821044921875-2.232666015625t-0.388916015625-1.051513671875q0-0.23046875,0.244873046875-0.37451171875t0.561767578125-0.23046875t0.648193359375-0.115234375t0.504150390625-0.02880859375q1.06591796875,0,1.829345703125,1.18115234375t1.2099609375,2.73681640625t0.648193359375,3.154541015625t0.20166015625,2.491943359375q0,1.12353515625-0.1728515625,2.39111328125t-0.648193359375,2.347900390625t-1.397216796875,1.800537109375t-2.33349609375,0.72021484375q-1.69970703125,0-2.79443359375-0.95068359375t-1.771728515625-2.3046875t-1.06591796875-2.952880859375t-0.734619140625-2.895263671875q-0.66259765625,1.52685546875-1.2099609375,3.8603515625t-1.3828125,4.58056640625t-2.1318359375,3.83154296875t-3.37060546875,1.58447265625t-2.952880859375-1.022705078125t-1.397216796875-2.808837890625l0.0576171875,0.0576171875q-0.345703125-1.29638671875-0.446533203125-2.5927734375t-0.100830078125-2.5927734375z M161.11724609375,119.3017578125q0-1.64208984375,0.417724609375-3.385009765625t1.3251953125-3.14013671875t2.290283203125-2.27587890625t3.341796875-0.878662109375q1.46923828125,0,3.096923828125,0.504150390625t2.981689453125,1.4404296875t2.203857421875,2.290283203125t0.849853515625,3.02490234375q0,2.0166015625-0.734619140625,3.83154296875t-2.059814453125,3.240966796875t-3.096923828125,2.2470703125t-3.845947265625,0.821044921875q-1.69970703125,0-2.96728515625-0.619384765625t-2.117431640625-1.656494140625t-1.267578125-2.44873046875t-0.417724609375-2.99609375z M165.352109375,119.244140625q0,0.5185546875,0.158447265625,1.52685546875t0.475341796875,1.973388671875t0.821044921875,1.6708984375t1.224365234375,0.648193359375q1.52685546875-0.1728515625,2.520751953125-0.993896484375t1.61328125-2.002197265625t0.8642578125-2.56396484375t0.244873046875-2.62158203125q0-1.58447265625-0.619384765625-2.650390625t-2.031005859375-1.728515625q0,0.0576171875,0.0576171875,0.0576171875t0.0576171875-0.0576171875l-0.72021484375-0.1728515625q-0.2880859375-0.115234375-0.705810546875-0.25927734375t-0.821044921875-0.6337890625q-1.12353515625,0.4033203125-1.742919921875,1.037109375t-0.936279296875,1.541259765625t-0.388916015625,2.175048828125t-0.072021484375,3.0537109375z M182.94465332031,110.68798828125q0-1.18115234375,0.417724609375-1.98779296875t1.771728515625-0.806640625q0.5185546875,0,1.29638671875,0.158447265625t0.89306640625,0.792236328125q0.2880859375,1.69970703125,0.31689453125,3.6875t0.20166015625,3.7451171875q0.66259765625-1.29638671875,1.69970703125-2.79443359375t2.3623046875-2.765625t2.880859375-2.10302734375t3.1689453125-0.83544921875q0.115234375,0,0.43212890625,0.08642578125t0.590576171875,0.244873046875t0.331298828125,0.360107421875t-0.31689453125,0.37451171875q-0.115234375,0.345703125-0.48974609375,0.417724609375t-0.66259765625,0.072021484375q-0.1728515625,0-0.54736328125-0.14404296875q-2.1318359375,1.12353515625-3.6298828125,3.0537109375t-2.44873046875,4.278076171875t-1.3828125,4.955078125t-0.43212890625,5.084716796875q0,1.23876953125-0.561767578125,1.498046875t-1.800537109375,0.25927734375q-0.66259765625,0-1.397216796875-0.14404296875t-1.022705078125-0.921875q-0.5185546875-1.64208984375-0.849853515625-3.77392578125t-0.504150390625-4.393310546875t-0.244873046875-4.450927734375t-0.072021484375-3.94677734375z M203.41805664062,130.45068359375l0.60498046875-0.72021484375q-0.115234375-4.83984375-0.25927734375-9.65087890625t-0.14404296875-9.564453125q0-5.90576171875,0.705810546875-11.422607421875t1.397216796875-11.307373046875q0.0576171875-0.345703125,0.331298828125-0.561767578125t0.677001953125-0.360107421875t0.821044921875-0.20166015625t0.763427734375-0.0576171875q0.4609375,0,1.15234375,0.1728515625t1.3828125,1.00830078125q0,0.2880859375,0.043212890625,0.504150390625t0.043212890625,0.504150390625q0,2.189453125-0.590576171875,4.69580078125t-0.792236328125,4.81103515625q-0.23046875,2.8232421875-0.31689453125,5.5888671875t-0.08642578125,5.61767578125l0.0576171875,2.53515625q0.576171875-0.72021484375,1.64208984375-1.84375t2.3046875-2.175048828125t2.4775390625-1.800537109375t2.2470703125-0.7490234375q1.52685546875,0,2.117431640625,0.8642578125t0.590576171875,2.27587890625q0,1.29638671875-0.561767578125,2.7080078125t-1.46923828125,2.751220703125t-2.059814453125,2.405517578125t-2.27587890625,1.58447265625q1.52685546875,1.9013671875,3.125732421875,3.6298828125t3.500244140625,3.25537109375l0,0.66259765625q-0.0576171875,0.2880859375-0.360107421875,0.43212890625t-0.66259765625,0.23046875t-0.705810546875,0.129638671875t-0.576171875,0.043212890625q-1.41162109375,0-2.722412109375-0.83544921875t-2.44873046875-2.04541015625t-2.146240234375-2.56396484375t-1.84375-2.3623046875q0.1728515625,3.31298828125,0.388916015625,6.611572265625t0.216064453125,6.611572265625q0,0.4033203125-0.360107421875,0.677001953125t-0.83544921875,0.417724609375t-0.965087890625,0.20166015625t-0.806640625,0.0576171875q-1.69970703125,0-2.405517578125-0.619384765625t-1.195556640625-2.146240234375z M209.32381835937,116.8818359375q0.72021484375,0,1.714111328125-0.619384765625t2.059814453125-1.541259765625t1.98779296875-1.944580078125t1.483642578125-1.944580078125t0.561767578125-1.483642578125t-0.77783203125-0.504150390625q-0.2880859375,0-1.18115234375,0.83544921875t-1.98779296875,2.04541015625t-2.189453125,2.62158203125t-1.6708984375,2.53515625z M226.74351074219,111.32177734375q0-1.18115234375,0.69140625-2.031005859375t1.685302734375-1.3828125t2.175048828125-0.792236328125t2.189453125-0.25927734375q0.77783203125,0,2.07421875,0.23046875t2.53515625,0.69140625t2.146240234375,1.2099609375t0.907470703125,1.75732421875q0,0.4609375-0.345703125,0.821044921875t-0.72021484375,0.360107421875q-0.77783203125,0-1.41162109375-0.504150390625t-1.310791015625-1.06591796875t-1.483642578125-1.06591796875t-1.81494140625-0.504150390625t-1.829345703125,0.648193359375t-0.821044921875,1.714111328125q0,1.75732421875,1.23876953125,3.442626953125t2.722412109375,3.54345703125t2.722412109375,3.903564453125t1.23876953125,4.52294921875q0,1.06591796875-0.446533203125,1.800537109375t-1.18115234375,1.195556640625t-1.656494140625,0.705810546875t-1.7861328125,0.244873046875q-0.95068359375,0-2.21826171875-0.446533203125t-2.39111328125-1.18115234375t-1.886962890625-1.714111328125t-0.763427734375-2.04541015625q0-0.5185546875,0.734619140625-0.66259765625t1.080322265625-0.14404296875q0.1728515625,0,0.532958984375,0.115234375t0.705810546875,0.25927734375t0.619384765625,0.31689453125t0.216064453125,0.37451171875q0.2880859375,0.345703125,0.878662109375,1.022705078125t1.18115234375,1.0947265625t1.037109375,0.302490234375t0.446533203125-1.29638671875q0-2.2470703125-1.2099609375-4.134033203125t-2.635986328125-3.6875t-2.635986328125-3.572265625t-1.2099609375-3.788330078125z"/><path fill="#" d=""/></svg>
