<?xml version="1.0" encoding="UTF-8"?> <svg xmlns="http://www.w3.org/2000/svg" xmlns:xlink="http://www.w3.org/1999/xlink" version="1.1" id="Camada_1" x="0px" y="0px" width="782.018px" height="219.315px" viewBox="0 0 782.018 219.315" xml:space="preserve"> <g> <path d="M180.152,3.874v215.417h-14.428L43.27,88.496v126.945H0V0.024h14.1l122.783,130.145V3.874H180.152z"></path> <path d="M228.508,3.874h142.328v39.107h-99.059v42.957h72.768v36.861h-72.768v53.535h102.908v39.107H228.508V3.874z"></path> <path d="M508,0.024c40.062,0,74.364,19.554,93.284,52.573l-32.707,23.082C553.523,51.955,533.32,40.093,508,40.093 c-39.436,0-68.277,29.491-68.277,69.881s28.841,69.247,68.277,69.247c25.32,0,45.523-11.862,60.578-35.586l32.707,23.082 c-18.278,33.02-52.894,52.573-93.613,52.573c-61.861,1.275-113.8-49.052-112.517-109.637C394.2,49.068,446.452-1.259,508,0.024z"></path> <rect x="633.52" y="3.874" width="148.499" height="39.107"></rect> <rect x="634.32" y="93.702" width="109.224" height="33.92"></rect> <rect x="635.12" y="176.419" width="146.898" height="39.107"></rect> </g> <g> </g> <g> </g> <g> </g> <g> </g> <g> </g> <g> </g> <g> </g> <g> </g> <g> </g> <g> </g> <g> </g> <g> </g> <g> </g> <g> </g> <g> </g> </svg> 