<?xml version="1.0" encoding="iso-8859-1"?>
<!-- Uploaded to: SVG Repo, www.svgrepo.com, Generator: SVG Repo Mixer Tools -->
<svg height="800px" width="800px" version="1.1" id="Capa_1" xmlns="http://www.w3.org/2000/svg" xmlns:xlink="http://www.w3.org/1999/xlink" 
	 viewBox="0 0 380 380" xml:space="preserve">
<g id="XMLID_1107_">
	<circle id="XMLID_1108_" style="fill:#FFDA44;" cx="190" cy="190" r="152.5"/>
	<path id="XMLID_1109_" style="fill:#FFFFFF;" d="M190,312.5c-67.549,0-122.5-54.951-122.5-122.5S122.451,67.5,190,67.5
		S312.5,122.451,312.5,190S257.549,312.5,190,312.5z"/>
	<g id="XMLID_1110_">
		<circle id="XMLID_1111_" style="fill:#0052B4;" cx="190" cy="40" r="40"/>
		<path id="XMLID_1112_" style="fill:#006DF0;" d="M190,0c22.09,0,40,17.91,40,40c0,22.091-17.91,40-40,40"/>
	</g>
	<g id="XMLID_1113_">
		<circle id="XMLID_1114_" style="fill:#0052B4;" cx="190" cy="340" r="40"/>
		<path id="XMLID_1115_" style="fill:#006DF0;" d="M190,300c22.09,0,40,17.91,40,40c0,22.091-17.91,40-40,40"/>
	</g>
	<g id="XMLID_1116_">
		<circle id="XMLID_1117_" style="fill:#0052B4;" cx="40" cy="190" r="40"/>
		<path id="XMLID_1118_" style="fill:#006DF0;" d="M40,150c22.09,0,40,17.91,40,40c0,22.091-17.91,40-40,40"/>
	</g>
	<g id="XMLID_1119_">
		<circle id="XMLID_1120_" style="fill:#0052B4;" cx="340" cy="190" r="40"/>
		<path id="XMLID_1121_" style="fill:#006DF0;" d="M340,150c22.09,0,40,17.91,40,40c0,22.091-17.91,40-40,40"/>
	</g>
	<path id="XMLID_1122_" style="fill:#AED5F3;" d="M240,230h-10l-10-40v-20h20v-20h-20l15.148-37.868
		C221.875,104.42,206.454,100,190,100c-21.429,0-41.105,7.495-56.561,20H190l-10,30l-20,20v20h30l-10,60h-20l-47.826-105.219
		C104.436,158.07,100,173.517,100,190c0,49.704,40.296,90,90,90c49.702,0,90-40.296,90-90c0-3.381-0.193-6.716-0.557-10H260L240,230
		z"/>
	<polygon id="XMLID_1123_" style="fill:#78B9EB;" points="180,150 160,170 160,190 190,190 190,120 	"/>
	<path id="XMLID_1124_" style="fill:#78B9EB;" d="M133.439,120H190v-20C168.571,100,148.895,107.495,133.439,120z"/>
	<path id="XMLID_1125_" style="fill:#78B9EB;" d="M190,190l-10,60h-20l-47.826-105.219C104.436,158.07,100,173.517,100,190
		c0,49.704,40.296,90,90,90V190z"/>
	<path id="XMLID_1126_" style="fill:#0052B4;" d="M180,250l10-60h-30v-20l20-20l10-30h-56.561
		c-8.505,6.881-15.731,15.277-21.265,24.781L160,250H180z"/>
	<path id="XMLID_1127_" style="fill:#0052B4;" d="M235.148,112.132L220,150h20v20h-20v20l10,40h10l20-50h19.443
		C276.235,150.987,259.238,126.131,235.148,112.132z"/>
</g>
</svg>